<svg data-v-2bc559e6="" xmlns="http://www.w3.org/2000/svg" width="26" height="26" viewBox="0 0 26 26" class="svg-icon">
    <path d="M19.712 9.557l-5.8 8.9c-.2.2-.4.4-.7.5-.3.1-.6 0-.9-.2l-5-3.7c-.6-.5-.8-1.2-.4-1.8.4-.5 1.1-.6 1.7-.3l4 3 5.1-7.8c.3-.5 1.1-.7 1.6-.4.6.5.7 1.2.4 1.8z"
          class="BB_PROVIDERS_svg__st0"></path>
    <g>
        <circle cx="13" cy="13" r="13" fill="none"></circle>
        <path d="M13 26C5.8 26 0 20.2 0 13S5.8 0 13 0s13 5.8 13 13-5.8 13-13 13zm0-24C6.9 2 2 6.9 2 13s4.9 11 11 11 11-4.9 11-11S19.1 2 13 2z"
              class="BB_PROVIDERS_svg__st0"></path>
    </g>
</svg>