<svg xmlns="http://www.w3.org/2000/svg" viewBox="0 0 50 50">
    <path d="m25.000146,3.282612c-11.994632,0 -21.717538,9.722906 -21.717538,21.716992c0,11.994732 9.722906,21.717786 21.717538,21.717786c11.994037,0 21.71724,-9.723054 21.71724,-21.717786c0,-11.994086 -9.723203,-21.716992 -21.71724,-21.716992l0,0l0,0zm0,40.539103c-10.378545,0 -18.821863,-8.44307 -18.821863,-18.82216c0,-10.378049 8.443565,-18.821466 18.821863,-18.821466c10.378248,0 18.821516,8.443416 18.821516,18.821466c0,10.379091 -8.443268,18.82216 -18.821516,18.82216l0,0l0,0zm2.173926,-18.868035l6.707658,-6.634655c0.609467,-0.60173 0.614228,-1.58385 0.012299,-2.193268c-0.601978,-0.609814 -1.585487,-0.614526 -2.193516,-0.012597l-6.716833,6.642541l-6.614322,-6.634754c-0.606689,-0.606392 -1.587123,-0.609715 -2.193565,-0.003025c-0.606591,0.604904 -0.608079,1.586776 -0.003025,2.193466l6.605147,6.625232l-6.659651,6.588036c-0.609467,0.603664 -0.614228,1.58385 -0.012299,2.193665c0.303964,0.307039 0.702804,0.460485 1.102982,0.460485c0.39388,0 0.788008,-0.150321 1.090484,-0.448384l6.668826,-6.595574l6.722983,6.744755c0.302527,0.303965 0.699729,0.455823 1.09832,0.455823c0.397153,0 0.792669,-0.151908 1.095196,-0.452748c0.606442,-0.605003 0.608078,-1.585487 0.003075,-2.193516l-6.713758,-6.735481l0,0z"/>
</svg>