<svg xmlns="http://www.w3.org/2000/svg" viewBox="0 0 166.6 186" style="fill:#4e5051">
    <path d="M121.2 167.2h-60c-.1-.1-.3-.2-.4-.2-6.1-1.1-10.4-4.5-12.6-10.3-.2-.6-.6-.8-1.2-.8-7.5-.3-13.4-5-15.2-12.1-.3-1.1-.4-2.2-.6-3.2V34.3c.1-.3.2-.5.2-.8.6-8.2 7.3-14.6 15.5-14.6 19-.1 38-.1 57 0 6.5 0 12.3 4.2 14.5 10.3.2.7.5 1 1.3 1 7 .1 13.1 4.8 15 11.6.3 1 .5 2 .7 3v107.8c-.1.2-.2.4-.2.6-.9 6-4 10.2-9.5 12.7-1.4.6-3 .9-4.5 1.3zm7-68.5V46.3c0-5.3-3.8-9.1-9.1-9.1H63.6c-5.4 0-9.3 3.8-9.3 9.2V151c0 5.4 3.8 9.2 9.3 9.2 18.5 0 36.9-.1 55.4 0 5.4 0 9.4-4.4 9.3-9.4-.2-17.4-.1-34.7-.1-52.1zm-17.1-68.5c-2.1-3-4.7-4.3-8-4.3H47.8c-5.6 0-9.4 3.8-9.4 9.4v104.2c0 .9.1 1.8.3 2.7.9 3.9 4.9 6.9 8.6 6.5v-1.5V47.1v-1.7c.4-8.6 7.2-15.2 15.8-15.2h48z"></path>
</svg>