<svg xmlns="http://www.w3.org/2000/svg" width="21" height="21" viewBox="0 0 21 21">
  <g id="Group_5549" data-name="Group 5549" transform="translate(12310 -2195)">
    <g id="Group_5547" data-name="Group 5547" transform="translate(-8163.5 445)">
      <ellipse id="Ellipse_249" data-name="Ellipse 249" cx="10.5" cy="10.5" rx="10.5" ry="10.5" transform="translate(-4146.5 1750)" fill="#fff"/>
    </g>
    <g id="Group_5548" data-name="Group 5548" transform="translate(-13076 1709)">
      <g id="Group_3785" data-name="Group 3785" transform="translate(3989 -1431)">
        <g id="Group_3784" data-name="Group 3784" transform="translate(-3216.941 1921.873)">
          <path id="Path_2623" data-name="Path 2623" d="M-247.387,50a4.613,4.613,0,0,1,4.613,4.613,4.613,4.613,0,0,1-4.613,4.613A4.613,4.613,0,0,1-252,54.613" transform="translate(252 -48.231)" fill="none" stroke="#000" stroke-linecap="round" stroke-linejoin="round" stroke-width="2"/>
          <path id="Path_2624" data-name="Path 2624" d="M-241.324,48.5a.713.713,0,0,1-.379-.109L-244.71,46.5a.713.713,0,0,1-.333-.6.712.712,0,0,1,.333-.6L-241.7,43.4a.713.713,0,0,1,.379-.109.711.711,0,0,1,.344.089.713.713,0,0,1,.368.624v3.784a.711.711,0,0,1-.368.623A.708.708,0,0,1-241.324,48.5Z" transform="translate(245.877 -44.124)"/>
        </g>
      </g>
    </g>
  </g>
</svg>
